<?xml version="1.0" encoding="UTF-8" standalone="no"?>
<!-- Created with Inkscape (http://www.inkscape.org/) -->

<svg
   width="90mm"
   height="90mm"
   viewBox="0 0 90 90"
   version="1.1"
   id="svg1"
   xml:space="preserve"
   inkscape:version="1.4.2 (ebf0e940d0, 2025-05-08)"
   sodipodi:docname="failure.svg"
   xmlns:inkscape="http://www.inkscape.org/namespaces/inkscape"
   xmlns:sodipodi="http://sodipodi.sourceforge.net/DTD/sodipodi-0.dtd"
   xmlns="http://www.w3.org/2000/svg"
   xmlns:svg="http://www.w3.org/2000/svg"><sodipodi:namedview
     id="namedview1"
     pagecolor="#ffffff"
     bordercolor="#000000"
     borderopacity="0.25"
     inkscape:showpageshadow="2"
     inkscape:pageopacity="0.0"
     inkscape:pagecheckerboard="0"
     inkscape:deskcolor="#d1d1d1"
     inkscape:document-units="mm"
     inkscape:zoom="0.79820426"
     inkscape:cx="396.51504"
     inkscape:cy="561.25984"
     inkscape:window-width="2560"
     inkscape:window-height="1388"
     inkscape:window-x="1920"
     inkscape:window-y="29"
     inkscape:window-maximized="1"
     inkscape:current-layer="layer1" /><defs
     id="defs1" /><g
     inkscape:label="Layer 1"
     inkscape:groupmode="layer"
     id="layer1"><path
       style="fill:#e00000;fill-opacity:1"
       d="m 13.626366,84.805056 -1.012286,-0.91985 0.252976,-0.63225 c 0.318035,-0.79485 0.207721,-1.34427 -0.367002,-1.82786 -0.620217,-0.52188 -1.70826,-0.49942 -3.3188191,0.0685 l -1.22409,0.43166 -0.55017,-0.43575 c -0.95172,-0.75378 -3.78959,-4.13798 -3.78959,-4.51915 0,-0.0981 0.16787,-0.37784 0.37303,-0.62167 0.59806,-0.71075 1.08674,-1.80283 1.08674,-2.42858 0,-0.39945 -0.18099,-0.9059 -0.58863,-1.64709 -0.32375,-0.58866 -0.75441,-1.42534 -0.95702,-1.8593 l -0.36839,-0.78902 0.56478,-0.59777 c 0.31062,-0.32876 1.71021,-1.80711 3.11018,-3.28522 1.39997,-1.4781 6.0598021,-6.01285 10.3551731,-10.07722 8.49991,-8.04279 9.34253,-8.88007 9.34253,-9.28332 0,-0.14806 -1.00934,-1.78396 -2.24299,-3.63532 -4.68373,-7.02897 -7.69075,-12.16715 -10.820616,-18.48949 -1.601599,-3.23523 -2.17774,-4.54097 -2.947387,-6.67984 l -0.4917,-1.36644 0.810361,-0.92301 c 0.669891,-0.76301 2.130232,-2.131785 3.310981,-3.103375 0.214749,-0.17671 0.33414,-0.14198 0.948851,0.27597 0.386755,0.26296 0.850943,0.63378 1.03153,0.82403 0.47157,0.496815 1.24202,0.782545 1.81574,0.673375 1.36436,-0.25962 2.0684,-1.107335 2.46831,-2.972055 0.2707,-1.2622503 1.19633,-2.0414703 2.42505,-2.0414703 0.86318,0 1.89041,0.80772 3.12418,2.4565703 3.34363,4.468545 8.89323,11.402275 12.69681,15.863535 3.63533,4.26393 3.67597,4.30633 4.12753,4.30633 0.28626,0 1.2262,-0.75323 3.8487,-3.08419 11.30015,-10.0439 23.14565,-19.8589753 28.17378,-23.3445253 l 1.23847,-0.85852 0.84148,0.57143 c 1.14211,0.77559 3.06959,2.3162 3.06387,2.44891 -0.003,0.0592 -0.10109,0.23523 -0.21897,0.39108 -0.11788,0.15585 -0.21432,0.49756 -0.21432,0.75935 0,0.60969 0.59277,1.19871 2.13899,2.1254703 l 1.14549,0.68658 0.94885,-0.20276 c 0.52187,-0.11152 0.98737,-0.15772 1.03446,-0.10267 0.0471,0.055 0.56373,0.67546 1.14812,1.37868 1.19705,1.440475 1.19923,1.216345 -0.0247,2.544575 -0.63823,0.69263 -0.77231,0.96763 -0.71125,1.45888 0.0118,0.0951 -0.98216,1.01209 -2.20885,2.03783 -9.19189,7.68616 -16.67257,14.45233 -24.09039,21.78942 -3.81461,3.77309 -4.4888,4.5029 -4.4888,4.85908 0,0.34284 0.52481,0.9829 2.88304,3.51619 8.07085,8.66993 14.43527,15.13033 17.2577,17.51794 l 0.6528,0.55224 -0.26788,0.76113 c -0.14733,0.41863 -0.55498,1.16555 -0.90589,1.65983 -0.55011,0.77488 -0.99852,1.14235 -3.25479,2.66723 -2.79347,1.88796 -3.03745,2.15617 -2.85542,3.13903 0.0716,0.3867 -0.003,0.53151 -0.54577,1.05942 -0.70725,0.68787 -2.23261,1.65115 -2.61459,1.65115 -0.13821,0 -0.59097,-0.2237 -1.00612,-0.49711 -0.41515,-0.27341 -1.24303,-0.74491 -1.83974,-1.04778 -1.05827,-0.53715 -1.09652,-0.54501 -1.55706,-0.3199 -0.25968,0.12692 -0.99766,0.7045 -1.63996,1.28349 -1.99633,1.79958 -3.5686,2.73173 -4.20164,2.49105 -0.47806,-0.18176 -5.14708,-4.74626 -7.10501,-6.94596 -0.85755,-0.96345 -2.37197,-2.73707 -3.36538,-3.94138 -0.9934,-1.20431 -2.68594,-3.19142 -3.76118,-4.4158 -1.77811,-2.02473 -1.99851,-2.22615 -2.43588,-2.22615 -0.41135,0 -0.60485,0.1421 -1.33808,0.98265 -0.47146,0.54046 -2.95167,3.21399 -5.51157,5.94118 -5.30001,5.64636 -7.44617,8.00755 -11.98701,13.18805 -3.177914,3.62558 -3.217594,3.66397 -3.795397,3.67185 -0.51712,0.007 -0.699695,-0.0973 -1.596195,-0.91189 z m 44.367462,-41.41092 c 0.14532,-0.16058 0.29706,-0.29196 0.3372,-0.29196 0.0401,0 -0.0459,0.13138 -0.19122,0.29196 -0.14532,0.16057 -0.29706,0.29195 -0.33721,0.29195 -0.0401,0 0.0459,-0.13138 0.19123,-0.29195 z m 1.67873,-1.65143 c 0,-0.0251 0.2135,-0.23861 0.47443,-0.47442 l 0.47442,-0.42875 -0.42874,0.47442 c -0.39966,0.44223 -0.52011,0.54153 -0.52011,0.42875 z M 10.040375,13.569146 c 0,-0.0251 0.21349,-0.238615 0.47443,-0.474425 l 0.474422,-0.42875 -0.428752,0.47443 c -0.39965,0.442225 -0.5201,0.541515 -0.5201,0.428745 z"
       id="path3" /></g></svg>
